<?xml version="1.0" encoding="UTF-8"?>
<!DOCTYPE svg PUBLIC "-//W3C//DTD SVG 1.1//EN" "http://www.w3.org/Graphics/SVG/1.1/DTD/svg11.dtd">
<!-- Creator: CorelDRAW 2020 (64-Bit) -->
<svg xmlns="http://www.w3.org/2000/svg" xml:space="preserve" width="422.571mm" height="212.065mm" version="1.1" style="shape-rendering:geometricPrecision; text-rendering:geometricPrecision; image-rendering:optimizeQuality; fill-rule:evenodd; clip-rule:evenodd"
viewBox="0 0 2742.28 1376.19"
 xmlns:xlink="http://www.w3.org/1999/xlink"
 xmlns:xodm="http://www.corel.com/coreldraw/odm/2003">
 <defs>
  <style type="text/css">
   <![CDATA[
    .fil0 {fill:#ED3237;fill-rule:nonzero}
   ]]>
  </style>
 </defs>
 <g id="Capa_x0020_1">
  <metadata id="CorelCorpID_0Corel-Layer"/>
  <path id="key:4_2_" class="fil0" d="M1971.52 647.1l-38.44 0c-10.84,0 -19.62,-8.78 -19.62,-19.62 0,-10.84 8.78,-19.62 19.62,-19.62l38.45 0c10.84,0 19.62,8.79 19.62,19.62 -0,10.83 -8.79,19.62 -19.62,19.62zm0 68.32l-38.44 0c-10.84,0 -19.62,-8.78 -19.62,-19.62 0,-10.84 8.78,-19.62 19.62,-19.62l38.45 0c10.84,0 19.62,8.78 19.62,19.62 -0,10.83 -8.79,19.62 -19.62,19.62zm0 68.32l-38.44 0c-10.84,0 -19.62,-8.78 -19.62,-19.62 0,-10.84 8.78,-19.62 19.62,-19.62l38.45 0c10.84,0 19.62,8.78 19.62,19.62 0,10.84 -8.79,19.62 -19.62,19.62zm0 68.32l-38.44 0c-10.84,0 -19.62,-8.78 -19.62,-19.62 0,-10.84 8.78,-19.62 19.62,-19.62l38.45 0c10.84,0 19.62,8.79 19.62,19.62 -0,10.84 -8.79,19.62 -19.62,19.62zm0 136.64l-38.44 0c-10.84,0 -19.62,-8.78 -19.62,-19.62 0,-10.84 8.78,-19.62 19.62,-19.62l38.45 0c10.84,0 19.62,8.78 19.62,19.62 -0,10.84 -8.79,19.62 -19.62,19.62zm449.1 -136.64l-78.48 0c-10.84,0 -19.62,-8.78 -19.62,-19.62 0,-10.84 8.78,-19.62 19.62,-19.62l78.48 0c10.84,0 19.62,8.79 19.62,19.62 0,10.84 -8.78,19.62 -19.62,19.62zm0 136.64l-78.48 0c-10.84,0 -19.62,-8.78 -19.62,-19.62 0,-10.84 8.78,-19.62 19.62,-19.62l78.48 0c10.84,0 19.62,8.78 19.62,19.62 0,10.84 -8.78,19.62 -19.62,19.62zm114.21 36.06l-35.5 0 0 -135.27 242.94 -186.35 -334.64 -266.91 -1205.1 0 0 -105.57c0,-87.64 -35.86,-171.3 -97.6,-233.05 -63.74,-63.74 -145.41,-97.6 -233.05,-97.6 -181.26,0 -328.66,147.4 -328.66,328.66l0 1.99c-91.63,3.98 -177.28,41.83 -243.01,107.56 -51.74,51.74 -85.93,115.55 -100.11,184.92 4.5,-3.08 9.01,-6.12 13.55,-9.12 37.1,-24.5 75.19,-45.92 114.24,-64.26 10.72,-17.12 23.43,-33.17 38.06,-47.8 51.79,-51.79 119.51,-79.67 193.21,-79.67l75.69 0 -0 -93.62c0,-129.47 105.57,-235.04 235.04,-235.04 63.74,0 123.5,25.89 167.32,69.71 45.81,45.81 69.72,105.57 69.72,167.32l0 197.2 1266.85 0 217.12 173.29 -91.56 70.02 0 -1.31c0,-10.84 -8.78,-19.62 -19.62,-19.62l-197.29 0c-10.84,0 -19.62,8.78 -19.62,19.62l0 254.91 -57.73 0 0 -222.95c0,-7.48 -4.25,-14.31 -10.97,-17.61l-144.46 -70.97 0 -153.99c0,-10.84 -8.78,-19.62 -19.62,-19.62l-58.1 0 -39.24 0 -58.1 0c-10.84,0 -19.62,8.78 -19.62,19.62l0 48.62 -100.29 -0c-10.84,0 -19.62,8.78 -19.62,19.62l0 115.74c0,10.84 8.79,19.62 19.62,19.62 10.84,0 19.62,-8.78 19.62,-19.62l0 -96.12 80.67 0 0 377.67 -80.67 0 0 -168.67 0 -51.56c0,-10.84 -8.79,-19.62 -19.62,-19.62 -10.84,0 -19.62,8.78 -19.62,19.62l0 31.94 -56.49 0 0 -66.62c0,-10.84 -8.79,-19.62 -19.62,-19.62l-107.01 0c-10.84,0 -19.62,8.78 -19.62,19.62l0 47.31 -46.82 99.7 -242.93 0c5.56,29.5 2.38,11.67 2.67,43.23l117.17 -0 0 64.67 -30.98 0c-10.83,-0 -19.62,8.78 -19.62,19.62 0,10.84 8.79,19.62 19.62,19.62l50.6 0 169.92 0 107.01 0 95.73 0 119.91 0 155.43 0 155.43 0 96.97 0 197.29 0 55.12 0c10.84,0 19.62,-8.78 19.62,-19.62 0,-10.84 -8.78,-19.62 -19.62,-19.62zm-1133.19 -47.99l130.68 0 0 47.99 -130.68 0 0 -47.99zm169.92 -19.62l0 -167.68 67.77 0 0 66.62 0 168.67 -67.77 0 0 -67.61zm107.01 -81.44l56.49 0 0 149.05 -56.49 0 0 -149.05zm215.64 -248.24l0 -48.62 116.19 0 0 146.59 0 299.31 -116.19 0 0 -397.29zm155.43 397.29l0 -267.81 116.19 57.08 0 210.73 -116.19 0zm252.4 0l0 -235.29 158.04 0 0 235.29 -158.04 0zm-330.53 -104.38l-38.44 0c-10.84,0 -19.62,-8.78 -19.62,-19.62 0,-10.84 8.78,-19.62 19.62,-19.62l38.45 0c10.84,0 19.62,8.78 19.62,19.62 -0,10.83 -8.79,19.62 -19.62,19.62zm449.1 0l-78.48 0c-10.84,0 -19.62,-8.78 -19.62,-19.62 0,-10.84 8.78,-19.62 19.62,-19.62l78.48 0c10.84,0 19.62,8.78 19.62,19.62 0,10.83 -8.78,19.62 -19.62,19.62z"/>
  <path class="fil0" d="M1192.66 957.92c-24.51,110.01 -92.63,203.26 -204.36,279.73 -103.08,70.6 -224.19,115.01 -363.31,133.25 -28.11,3.53 -55.15,5.29 -81.1,5.29 -83.62,0 -145.25,-15.88 -184.9,-47.65 -2.88,-2.35 -4.33,-5.59 -4.33,-9.71 0,-11.77 6.49,-20.89 19.46,-27.36 20.18,-82.95 54.79,-175.9 103.8,-278.85 31,-65.3 87.22,-171.78 168.68,-319.44 7.21,-15.3 14.78,-30.59 22.71,-45.89 11.53,-19.41 25.59,-29.12 42.17,-29.12 5.77,0 11.53,0.88 17.3,2.65 22.35,7.06 33.52,18.53 33.52,34.42 0,16.47 -10.45,30.3 -31.36,41.47 -25.95,28.24 -68.48,97.95 -127.59,209.14 -70.64,132.37 -121.46,250.32 -152.46,353.86 -7.21,24.71 -8.65,42.06 -4.33,52.06 30.28,16.47 68.12,24.12 113.53,22.94 61.27,-1.76 130.12,-15.59 206.53,-41.47 92.27,-31.77 169.04,-74.42 230.31,-127.95 75.69,-65.89 121.1,-142.66 136.24,-230.32 2.88,-16.47 4.32,-32.94 4.32,-49.42 0,-98.83 -44.69,-179.72 -134.08,-242.67 -84.34,-60.01 -187.42,-90.01 -309.25,-90.01 -152.82,0 -293.39,35.3 -421.7,105.89 -128.31,70.59 -197.52,149.13 -207.61,235.61 -5.77,48.24 41.09,86.77 140.57,115.6 28.83,8.24 43.25,17.06 43.25,26.47 0,5.88 -4.87,10.59 -14.6,14.12 -9.73,3.53 -19.64,4.71 -29.73,3.53 -51.9,-6.47 -96.6,-21.18 -134.08,-44.12 -46.86,-28.83 -70.28,-65.01 -70.28,-108.54 0,-9.41 1.08,-19.41 3.24,-30 22.35,-91.77 100.56,-173.84 234.64,-246.2 139.85,-75.3 293.39,-112.95 460.63,-112.95 27.39,0 54.42,1.18 81.1,3.53 115.34,9.41 213.01,46.48 293.03,111.19 85.78,69.42 128.67,154.43 128.67,255.03 0,24.71 -2.88,50 -8.65,75.89z"/>
 </g>
</svg>
