<?xml version="1.0" encoding="UTF-8"?>
<!DOCTYPE svg PUBLIC "-//W3C//DTD SVG 1.1//EN" "http://www.w3.org/Graphics/SVG/1.1/DTD/svg11.dtd">
<!-- Creator: CorelDRAW 2020 (64-Bit) -->
<svg xmlns="http://www.w3.org/2000/svg" xml:space="preserve" width="446.111mm" height="260.263mm" version="1.1" style="shape-rendering:geometricPrecision; text-rendering:geometricPrecision; image-rendering:optimizeQuality; fill-rule:evenodd; clip-rule:evenodd"
viewBox="0 0 3697.41 2157.08"
 xmlns:xlink="http://www.w3.org/1999/xlink"
 xmlns:xodm="http://www.corel.com/coreldraw/odm/2003">
 <defs>
  <style type="text/css">
   <![CDATA[
    .fil0 {fill:#FEFEFE}
    .fil1 {fill:#ED3237;fill-rule:nonzero}
   ]]>
  </style>
 </defs>
 <g id="Capa_x0020_1">
  <metadata id="CorelCorpID_0Corel-Layer"/>
  <path class="fil0" d="M2918.76 1887.43l50.83 8.69 -19.53 185.67c-7.32,8.6 -16.13,15.83 -26.04,21.54 -11.01,6.34 -22.97,10.76 -35.44,13.16 -9.16,1.76 -18.46,2.6 -27.78,2.6 -6.81,0 -13.63,-0.52 -20.39,-1.29 -6,-0.68 -11.97,-1.67 -17.9,-2.83 -6.9,1.34 -13.88,2.45 -20.87,3.13 -6.77,0.65 -13.56,0.99 -20.36,0.99 -5.6,0 -11.21,-0.22 -16.79,-0.69l-72.31 -1.52c-4.83,-0.1 -9.67,-0.15 -14.5,-0.15 -5.26,0 -10.53,0.06 -15.79,0.16l-25.95 0.48c-2.13,0.28 -4.25,0.53 -6.38,0.73 -6.77,0.65 -13.56,0.99 -20.36,0.99 -6.33,0 -12.66,-0.28 -18.96,-0.89l-9.71 0.18 0.08 -1.11 -15.17 -0.15 0 1.06 -54.96 -0.94 -0.02 0.97 -58.37 -1.04 -20.63 0.1 -32.13 0.47 -0.75 39.33 -74.55 -1.62c-4.93,-0.11 -9.85,-0.15 -14.78,-0.15 -5.3,0 -10.59,0.07 -15.89,0.16l-81.35 1.38 2.87 -39.47 -37.87 -0.45 -57.54 0.27 -0.1 0.23 -12.85 -0.14 -25.97 0.33 -0.16 -0.61 -10.3 -0.11c-5.98,-0.07 -11.98,-0.16 -17.97,-0.16 -6.43,0 -12.86,0.09 -19.29,0.16l-99.6 1.2 81.68 -201.24c-5.42,-3 -10.58,-6.51 -15.34,-10.48 -18.5,33.9 -54.17,47.81 -91.68,47.81 -33.36,0 -65.9,-9.61 -86.56,-35.33 -50.81,33.22 -107.37,52.06 -168.46,52.06 -12.96,0 -25.9,-0.93 -38.73,-2.73 -46.96,-6.57 -89.41,-26.17 -120.49,-62.52 -14.89,-17.05 -25.69,-36.1 -32.8,-56.49 -23.77,24.93 -49.29,48.79 -76.47,71.6 -144.9,121.56 -313.34,195.21 -500.1,224.99 -38.13,6.08 -76.68,9.21 -115.29,9.21 -103.14,0 -212.11,-21.02 -288.29,-95.91 -18.46,-18.14 -27.76,-42.48 -27.76,-68.23 0,-31.92 11.25,-60.37 31.47,-82.53 30.62,-144.11 77.84,-286.6 131,-423.57 65.43,-168.59 141.84,-336.72 216.1,-501.65 9.33,-24.2 19.06,-48.25 29.17,-72.14l0.74 -1.75 0.83 -1.71c6.61,-13.64 14.49,-26.49 23.66,-37.92 -152.25,12.35 -292.48,62.71 -421.97,150 -108.06,72.85 -219.48,176.68 -232.68,314.16 -5.1,53.08 93.39,90.61 130.3,103.67 50.98,18.04 104.8,49.88 104.8,111.55 0,41.64 -25.99,73.7 -62.82,90.07 -24.98,11.1 -52.24,15.19 -79.3,11.1 -74.52,-11.26 -144.37,-37.67 -204.83,-83.15 -75.47,-56.77 -119.43,-134.17 -119.43,-229.3 0,-19.82 1.9,-39.63 5.15,-59.18l0.19 -1.14 0.22 -1.13c30.09,-151.4 124.14,-271.34 240.28,-366l11.23 -54.89c21.33,-104.29 72.85,-198.57 148.14,-273.86 80.53,-80.53 182.12,-133.29 292.79,-152.01 31.76,-242.08 239.29,-429.44 489.92,-429.44 133.26,0 256.05,52.25 350.24,146.44 92.87,92.87 146.44,218.66 146.44,350.24l0 60.45 1490.74 0 522.07 416.41 -356.62 273.54 0 66.01c40.74,12.43 70.39,50.33 70.39,95.13 0,54.9 -44.54,99.44 -99.44,99.44l-340.61 0c15.83,28.36 23.62,63.29 23.01,102.48 0.37,3.27 0.55,6.58 0.55,9.91 0,23.01 -9.07,48.61 -17.38,69.9 -13,33.29 -31.02,69.6 -59.13,92.58 10.44,16.78 16.64,35.83 15.77,57.44 -0.76,18.74 -6.32,34.41 -15.19,47.48zm-1505.04 -1102.57l0 -288.18c0,-61.11 -24.1,-117.95 -67.25,-161.1 -42.76,-42.76 -100.46,-67.25 -161.1,-67.25 -124.3,0 -225.81,101.5 -225.81,225.8l0 160.15c2.3,-0.01 4.61,-0.02 6.91,-0.02 37.11,0 74.17,2.16 111.09,5.9 125.13,12.7 237.94,53.77 336.15,124.69zm255.96 386.11l254.66 0 32.66 -69.54 0 -43.82c0,-54.9 44.55,-99.44 99.44,-99.44l136.67 0c7.85,0 15.49,0.91 22.82,2.63l0 -85.03c0,-19.42 5.57,-37.54 15.21,-52.86l-769.43 0c11.9,10.32 23.55,21.13 34.95,32.44 91.32,90.52 148.76,196.5 173.02,315.62zm1096.79 -348.06l0 116.04 137.58 67.59c17.38,-28.97 49.1,-48.38 85.33,-48.38l251.97 0c2.89,0 5.74,0.12 8.57,0.36l-169.91 -135.62 -313.54 0zm-1664.58 59.83c13.05,19.6 20.45,43.03 20.45,69.63 0,49.04 -23.67,89.34 -61.16,118.24 -19.48,28.35 -37.55,65.31 -52.22,94.79 -34.04,68.43 -65.32,138.75 -95.79,208.83 -75.62,173.94 -145.79,357.13 -190.65,541.68 -1.01,4.17 -2.52,10.62 -3.84,17.46 21.96,6.94 45.65,8.78 68.53,8.01 80.68,-2.73 163.58,-28.2 237.54,-59.17 101.47,-42.5 193.17,-101.9 268.57,-182.46 85.11,-90.93 137.23,-196.64 154.66,-320.01 3.13,-22.17 4.79,-44.54 4.79,-66.93 0,-131.03 -46.47,-237.61 -145.59,-323.57 -61.9,-53.68 -130.59,-88.17 -205.29,-106.49zm1669.53 788.47c1.67,-3.97 3.41,-7.89 5.17,-11.74 5.55,-12.17 11.54,-24.97 16.55,-37.61 0.22,-1.87 0.43,-3.75 0.6,-5.63 -15.63,2.79 -30.63,8.78 -44.75,16.39 -4.03,2.18 -12.8,7.32 -18.5,12.09 1.7,1.73 3.67,3.48 5.44,4.98 5.96,3.45 11.97,7.31 17.14,10.43 6.12,3.69 12.23,7.39 18.35,11.1zm-995.32 -30.5c-0.37,-0.13 -0.77,-0.25 -1.18,-0.37 -8.7,1.68 -17.52,2.4 -26.36,1.97 -14.41,3.13 -27.25,9.1 -38.29,19.6 -16.26,15.46 -34.48,45.38 -46.12,64.48 -9.58,15.72 -19.86,36.79 -19.86,55.69 0,1.41 0.1,4.53 0.55,6.62 0.45,0.04 0.88,0.06 1.23,0.07 24.97,1.07 46.81,-5.38 67.57,-19.28 22.62,-15.16 39.2,-34.49 50.34,-59.35 7.85,-17.51 13.46,-36.62 13.46,-55.94 0,-2.95 -0.24,-9.62 -1.33,-13.49z"/>
  <g id="_2293143925904">
   <path id="key:4_2_" class="fil1" d="M2592.31 900.82l-49.1 0c-13.84,0 -25.06,-11.21 -25.06,-25.06 0,-13.84 11.21,-25.06 25.06,-25.06l49.1 0c13.84,0 25.06,11.22 25.06,25.06 -0,13.84 -11.22,25.06 -25.06,25.06zm0 87.25l-49.1 0c-13.84,0 -25.06,-11.21 -25.06,-25.06 0,-13.84 11.21,-25.06 25.06,-25.06l49.1 0c13.84,0 25.06,11.21 25.06,25.06 -0,13.84 -11.22,25.06 -25.06,25.06zm0 87.25l-49.1 0c-13.84,0 -25.06,-11.21 -25.06,-25.06 0,-13.84 11.21,-25.06 25.06,-25.06l49.1 0c13.84,0 25.06,11.21 25.06,25.06 0,13.84 -11.22,25.06 -25.06,25.06zm0 87.26l-49.1 0c-13.84,0 -25.06,-11.21 -25.06,-25.06 0,-13.84 11.21,-25.06 25.06,-25.06l49.1 0c13.84,0 25.06,11.22 25.06,25.06 -0,13.84 -11.22,25.06 -25.06,25.06zm0 174.51l-49.1 0c-13.84,0 -25.06,-11.21 -25.06,-25.06 0,-13.84 11.21,-25.06 25.06,-25.06l49.1 0c13.84,0 25.06,11.21 25.06,25.06 -0,13.84 -11.22,25.06 -25.06,25.06zm573.57 -174.51l-100.24 0c-13.84,0 -25.06,-11.21 -25.06,-25.06 0,-13.84 11.21,-25.06 25.06,-25.06l100.24 0c13.84,0 25.06,11.22 25.06,25.06 0,13.84 -11.22,25.06 -25.06,25.06zm0 174.51l-100.24 0c-13.84,0 -25.06,-11.21 -25.06,-25.06 0,-13.84 11.21,-25.06 25.06,-25.06l100.24 0c13.84,0 25.06,11.21 25.06,25.06 0,13.84 -11.22,25.06 -25.06,25.06zm145.87 46.06l-45.34 0 0 -172.77 310.28 -237.99 -427.38 -340.89 -1539.09 0 0 -134.83c0,-111.93 -45.79,-218.78 -124.65,-297.64 -81.41,-81.41 -185.71,-124.65 -297.64,-124.65 -231.5,0 -419.75,188.25 -419.75,419.75l0 2.54c-117.02,5.09 -226.41,53.42 -310.36,137.37 -66.08,66.08 -109.74,147.58 -127.86,236.17 5.74,-3.93 11.51,-7.82 17.31,-11.65 47.38,-31.3 96.03,-58.65 145.9,-82.07 13.69,-21.87 29.93,-42.37 48.6,-61.04 66.14,-66.14 152.64,-101.76 246.76,-101.76l96.67 0 -0 -119.57c0,-165.36 134.83,-300.18 300.19,-300.18 81.41,0 157.73,33.07 213.69,89.04 58.51,58.51 89.04,134.83 89.04,213.69l0 251.85 1617.95 0 277.29 221.32 -116.94 89.42 0 -1.67c0,-13.84 -11.21,-25.06 -25.06,-25.06l-251.97 0c-13.84,0 -25.06,11.21 -25.06,25.06l0 325.55 -73.72 0 0 -284.75c0,-9.55 -5.43,-18.28 -14.01,-22.49l-184.5 -90.64 0 -196.67c0,-13.84 -11.21,-25.06 -25.06,-25.06l-74.2 0 -50.12 0 -74.2 0c-13.84,0 -25.06,11.21 -25.06,25.06l0 62.1 -128.09 -0c-13.84,0 -25.06,11.21 -25.06,25.06l0 147.82c0,13.84 11.22,25.06 25.06,25.06 13.84,0 25.06,-11.21 25.06,-25.06l0 -122.76 103.03 0 0 482.34 -103.03 0 0 -215.41 0 -65.85c0,-13.84 -11.22,-25.06 -25.06,-25.06 -13.84,0 -25.06,11.21 -25.06,25.06l0 40.79 -72.15 0 0 -85.08c0,-13.84 -11.22,-25.06 -25.06,-25.06l-136.67 0c-13.84,0 -25.06,11.21 -25.06,25.06l0 60.42 -59.8 127.33 -310.26 0c7.09,37.68 3.04,14.91 3.41,55.22l149.64 -0 0 82.59 -39.57 0c-13.84,-0 -25.06,11.21 -25.06,25.05 0,13.84 11.22,25.06 25.06,25.06l64.63 0 217.01 0 136.66 0 122.26 0 153.14 0 198.51 0 198.51 0 123.84 0 251.96 0 70.4 0c13.84,0 25.06,-11.21 25.06,-25.06 0,-13.84 -11.21,-25.06 -25.05,-25.06zm-1447.25 -61.29l166.89 0 0 61.29 -166.89 0 0 -61.29zm217.01 -25.06l0 -214.15 86.55 0 0 85.08 0 215.41 -86.55 0 0 -86.34zm136.67 -104.01l72.15 0 0 190.36 -72.15 0 0 -190.36zm275.41 -317.04l0 -62.1 148.4 0 0 187.22 0 382.27 -148.4 0 0 -507.39zm198.51 507.4l0 -342.04 148.4 72.9 0 269.14 -148.4 0zm322.36 0l0 -300.5 201.85 0 0 300.5 -201.85 0zm-422.13 -133.31l-49.1 0c-13.84,0 -25.06,-11.21 -25.06,-25.06 0,-13.84 11.21,-25.06 25.06,-25.06l49.1 0c13.84,0 25.06,11.21 25.06,25.06 -0,13.84 -11.22,25.06 -25.06,25.06zm573.57 0l-100.24 0c-13.84,0 -25.06,-11.21 -25.06,-25.06 0,-13.84 11.21,-25.06 25.06,-25.06l100.24 0c13.84,0 25.06,11.21 25.06,25.06 0,13.84 -11.22,25.06 -25.06,25.06z"/>
   <path class="fil1" d="M1597.59 1426.03c-31.3,172.16 -118.3,318.08 -261,437.77 -131.65,110.48 -286.32,179.99 -464,208.53 -35.91,5.52 -70.43,8.29 -103.57,8.29 -106.79,0 -185.51,-24.86 -236.14,-74.57 -3.68,-3.68 -5.52,-8.75 -5.52,-15.19 0,-18.41 8.29,-32.68 24.86,-42.81 25.78,-129.81 69.97,-275.27 132.57,-436.38 39.59,-102.19 111.4,-268.83 215.43,-499.91 9.21,-23.94 18.87,-47.87 29,-71.81 14.73,-30.38 32.68,-45.57 53.86,-45.57 7.37,0 14.73,1.38 22.1,4.14 28.54,11.05 42.81,29 42.81,53.86 0,25.78 -13.35,47.41 -40.05,64.9 -33.14,44.19 -87.46,153.29 -162.95,327.29 -90.22,207.14 -155.13,391.73 -194.72,553.77 -9.21,38.67 -11.05,65.83 -5.52,81.48 38.67,25.78 87,37.75 145,35.9 78.26,-2.76 166.18,-24.4 263.76,-64.9 117.84,-49.72 215.89,-116.46 294.15,-200.24 96.67,-103.11 154.67,-223.26 174,-360.43 3.68,-25.78 5.52,-51.56 5.52,-77.33 0,-154.67 -57.08,-281.26 -171.24,-379.77 -107.72,-93.91 -239.37,-140.86 -394.96,-140.86 -195.18,0 -374.7,55.24 -538.58,165.72 -163.87,110.48 -252.26,233.38 -265.15,368.72 -7.36,75.49 52.48,135.79 179.53,180.91 36.83,12.89 55.24,26.7 55.24,41.43 0,9.21 -6.21,16.57 -18.64,22.1 -12.43,5.52 -25.09,7.36 -37.98,5.52 -66.29,-10.13 -123.37,-33.14 -171.24,-69.05 -59.84,-45.11 -89.76,-101.73 -89.76,-169.86 0,-14.73 1.38,-30.38 4.14,-46.95 28.54,-143.62 128.43,-272.05 299.67,-385.29 178.6,-117.84 374.7,-176.76 588.29,-176.76 34.98,0 69.51,1.84 103.57,5.52 147.3,14.73 272.05,72.73 374.24,174 109.56,108.64 164.34,241.67 164.34,399.1 0,38.67 -3.68,78.25 -11.05,118.76z"/>
   <path class="fil1" d="M1872.56 1752.6c-18.95,40.62 -48.14,74.32 -87.57,101.09 -41.99,28.57 -86.03,42.85 -132.12,42.85 -9.73,0 -19.2,-0.67 -28.42,-2.01 -32.26,-4.46 -57.1,-16.96 -74.51,-37.49 -16.9,-19.19 -25.35,-43.74 -25.35,-73.65 0,-35.26 11.27,-72.08 33.8,-110.47 22.53,-38.38 49.16,-71.41 79.89,-99.09 35.33,-32.14 67.6,-48.2 96.79,-48.2 9.73,0 18.69,1.79 26.89,5.36 46.09,-1.34 80.4,11.16 102.93,37.49 18.95,22.32 28.42,52.22 28.42,89.71 0,33.03 -6.91,64.5 -20.74,94.4zm-40.71 -12.05c13.31,-29.9 19.97,-58.69 19.97,-86.37 0,-55.35 -27.14,-85.25 -81.42,-89.71 -9.22,3.57 -17.15,4.46 -23.81,2.68 -34.82,4.91 -64.01,18.52 -87.57,40.84 -15.87,15.18 -35.33,41.73 -58.38,79.67 -20.48,33.47 -30.73,64.94 -30.73,94.4 0,23.66 6.66,42.85 19.97,57.58 13.31,14.73 30.98,22.54 53,23.43 40.46,1.79 77.84,-8.82 112.15,-31.8 34.31,-22.99 59.91,-53.23 76.81,-90.72zm486.24 95.74c0,8.48 -4.35,16.51 -13.06,24.1 -10.24,8.93 -23.56,13.84 -39.94,14.73 -37.9,2.23 -56.84,-18.08 -56.84,-60.92 0,-25.89 10.24,-72.53 30.73,-139.93 4.61,-15.18 5.63,-23.21 3.07,-24.1 -2.05,-1.34 -13.31,11.6 -33.8,38.83 -18.44,24.1 -41.48,56.91 -69.13,98.42 -23.04,34.37 -38.66,56.01 -46.86,64.94 -3.07,3.57 -8.71,5.36 -16.9,5.36 -9.22,0 -17.41,-2.01 -24.58,-6.03 -7.17,-4.02 -9.73,-8.7 -7.68,-14.06 9.22,-29.46 26.63,-80.34 52.23,-152.65 5.12,-13.84 7.68,-23.21 7.68,-28.12 0,-3.57 -1.02,-5.58 -3.07,-6.03 -1.02,-0.45 -5.63,2.9 -13.83,10.04 -8.19,7.14 -14.59,13.61 -19.2,19.42 -43.02,54.45 -67.6,86.14 -73.74,95.07 -25.6,34.81 -45.06,66.28 -58.38,94.4 -3.07,6.7 -12.03,10.04 -26.88,10.04 -24.07,0 -34.31,-6.92 -30.73,-20.75 17.92,-69.63 55.56,-160.23 112.92,-271.82 -1.54,-12.94 1.79,-25.22 9.99,-36.82 21,-29.46 38.41,-42.62 52.23,-39.5 9.73,2.23 14.6,7.36 14.6,15.4 0,9.82 -6.66,24.99 -19.97,45.53 -35.85,54.9 -72.46,129.66 -109.84,224.28 14.34,-25.89 38.41,-59.14 72.21,-99.76 28.17,-33.48 54.03,-61.82 77.58,-85.03 11.78,-11.6 24.84,-17.41 39.18,-17.41 17.41,0 26.12,10.49 26.12,31.47 0,11.6 -2.82,25.89 -8.45,42.85 -5.63,16.96 -16.9,47.98 -33.8,93.06 20.48,-26.78 40.97,-53.56 61.45,-80.34 25.6,-33.03 47.37,-58.92 65.29,-77.66 12.8,-13.39 26.89,-20.08 42.25,-20.08 12.8,0 19.2,8.26 19.2,24.77 0,15.18 -5.38,36.38 -16.13,63.6 -23.56,59.81 -35.34,105.56 -35.34,137.25 0,20.53 5.63,31.91 16.9,34.15 5.12,0.89 11.91,-2.12 20.36,-9.04 8.45,-6.92 14.98,-10.38 19.59,-10.38 9.73,0 14.59,4.24 14.59,12.72zm256.56 -190.14c-14.34,24.1 -27.65,52.22 -39.94,84.36 -13.83,37.49 -20.74,67.4 -20.74,89.71 0,22.32 4.87,33.47 14.59,33.47 1.54,0 4.23,-0.67 8.07,-2.01 3.84,-1.34 7.04,-2.01 9.6,-2.01 9.22,0 13.83,4.69 13.83,14.06 0,7.59 -6.14,14.06 -18.44,19.42 -12.29,5.36 -24.32,7.36 -36.1,6.03 -23.04,-2.23 -34.57,-20.09 -34.57,-53.56 0,-9.82 1.79,-29.23 5.38,-58.25 -50.7,69.63 -97.04,104.44 -139.03,104.44 -5.12,0 -10.24,-0.45 -15.36,-1.34 -15.36,-3.12 -23.04,-15.85 -23.04,-38.16 0,-51.33 36.36,-143.05 109.08,-275.17 5.12,-9.37 17.16,-14.51 36.1,-15.4 10.24,-0.45 15.36,7.14 15.36,22.76 0,7.14 -1.28,14.06 -3.84,20.76 -4.61,12.05 -11.78,19.19 -21.51,21.42 -21.51,27.67 -41.74,64.94 -60.68,111.81 -17.92,44.19 -26.88,76.99 -26.88,98.42 0,8.48 1.79,13.39 5.38,14.73 9.73,4.46 34.05,-14.28 72.97,-56.24 37.38,-40.62 63.76,-74.98 79.12,-103.1 3.07,-7.14 4.87,-16.51 5.38,-28.12 0.51,-6.7 5.12,-14.51 13.83,-23.43 6.66,-7.14 15.36,-10.71 26.12,-10.71 18.44,0 27.65,6.03 27.65,18.08 0,2.68 -0.77,5.36 -2.31,8.03zm344.9 -30.13c0.51,0.89 0.77,2.23 0.77,4.02 0,7.14 -4.1,21.42 -12.29,42.85 -16.9,42.85 -33.54,65.61 -49.93,68.29 -4.1,0.89 -7.68,1.34 -10.75,1.34 -9.22,0 -13.83,-3.57 -13.83,-10.71 0,-5.36 3.59,-15.85 10.75,-31.47 10.75,-23.66 17.92,-40.39 21.51,-50.21 2.05,-14.73 3.07,-27.23 3.07,-37.49 0,-39.72 -15.62,-60.48 -46.86,-62.26 -35.85,-1.79 -71.95,7.14 -108.31,26.78 -38.92,20.98 -59.15,45.3 -60.68,72.98 -1.54,25.44 12.29,49.32 41.48,71.64 1.02,0.45 26.88,16.07 77.58,46.86 29.19,17.85 48.65,30.57 58.38,38.16 19.97,15.18 29.7,28.57 29.19,40.17 -0.51,13.84 -17.92,24.77 -52.23,32.81 -30.73,7.14 -68.37,10.71 -112.92,10.71 -36.87,0 -67.85,-4.02 -92.95,-12.05 -30.21,-9.82 -44.81,-23.88 -43.78,-42.18 1.02,-13.39 5.12,-26.56 12.29,-39.5 9.22,-15.62 19.97,-23.43 32.26,-23.43 10.75,0 16.13,2.9 16.13,8.7 0,3.12 -3.71,10.6 -11.14,22.43 -7.43,11.83 -11.14,20.87 -11.14,27.11 0.51,11.6 9.99,20.09 28.42,25.44 6.66,2.23 24.84,5.58 54.54,10.04 79.89,-1.34 119.83,-9.15 119.83,-23.43 0,-9.37 -12.8,-22.32 -38.41,-38.83 -23.56,-13.84 -47.11,-27.67 -70.67,-41.51 -55.31,-33.03 -82.96,-68.96 -82.96,-107.79 0,-5.36 0.51,-10.49 1.54,-15.4 5.12,-29.01 30.73,-57.13 76.81,-84.36 46.09,-27.23 93.46,-40.62 142.11,-40.17 65.04,0.45 95.76,37.27 92.18,110.47z"/>
   <path class="fil1" d="M2031.94 2042.53l6.82 -11.85 42.51 -80.18 4.52 -8.96c1.32,-2.64 3.14,-6.43 5.5,-11.37 9.66,0.11 16.7,0.17 21.14,0.17 7.72,0 14.88,-0.06 21.48,-0.17l11.99 34.34 24.45 66 4.77 12.02c-9.49,-0.11 -15.24,-0.17 -17.27,-0.17 -4.6,0 -11.4,0.06 -20.33,0.17 -2.41,-9.07 -5.9,-19.74 -10.47,-32.01l-41.41 0c-4.74,9.69 -9.66,20.35 -14.74,32.01 -10.22,-0.11 -16.48,-0.17 -18.78,-0.17 -4.18,0 -10.89,0.06 -20.19,0.17zm63.65 -55.93l25.55 0c-6.37,-19.34 -9.85,-30.01 -10.47,-31.98 -3.59,8.06 -6.65,14.65 -9.18,19.82l-5.9 12.16zm87.12 55.93l1.46 -17.71 3.17 -61.54 0.9 -33.1c7.61,0.11 13.34,0.17 17.18,0.17 5,0 10.5,-0.06 16.54,-0.17l-1.85 25.27 -3 62.24 -0.65 24.85c-5.9,-0.06 -11.17,-0.08 -15.89,-0.08l-17.86 0.08zm109.41 38.58l1.91 -26.25c0.34,-3.9 0.81,-11.26 1.43,-22.07 -2.47,2.3 -4.49,4.07 -6.09,5.28 -1.6,1.21 -3.57,2.33 -5.9,3.4 -2.33,1.07 -4.8,1.88 -7.41,2.44 -2.58,0.53 -5.28,0.81 -8,0.81 -7.41,0 -13.81,-1.85 -19.23,-5.56 -5.39,-3.71 -9.46,-8.54 -12.13,-14.46 -2.7,-5.95 -4.04,-12.41 -4.04,-19.32 0,-5.25 0.76,-10.42 2.27,-15.5 1.49,-5.08 3.71,-9.8 6.6,-14.15 2.92,-4.35 6.88,-8.03 11.93,-11.03 5.03,-2.98 10.92,-5.11 17.66,-6.37 6.74,-1.26 13.78,-1.88 21.14,-1.88 11.29,0 24.42,1.23 39.45,3.71 -1.26,13.76 -2.27,26.47 -3.06,38.1 -0.76,11.62 -1.35,23.22 -1.77,34.79 -0.42,11.6 -0.81,27.6 -1.21,48.06 -5.19,-0.11 -10.67,-0.17 -16.4,-0.17 -4.83,0 -10.53,0.06 -17.15,0.17zm4.8 -99.5c-3.2,-0.59 -5.95,-0.9 -8.31,-0.9 -5.17,0 -9.52,0.98 -13.06,2.98 -3.54,1.99 -6.2,4.97 -8,8.9 -1.83,3.96 -2.72,8.25 -2.72,12.86 0,2.89 0.48,5.53 1.43,7.89 0.95,2.39 2.53,4.27 4.66,5.67 2.13,1.43 4.49,2.13 7.07,2.13 2.02,0 3.99,-0.42 5.92,-1.26 1.91,-0.84 3.65,-2.08 5.25,-3.71 1.6,-1.66 2.92,-3.73 3.99,-6.26 1.07,-2.53 1.88,-5.84 2.39,-9.97 0.53,-4.1 0.98,-10.22 1.38,-18.33zm140.8 60.92c-6.26,-0.11 -11.48,-0.17 -15.64,-0.17 -5.17,0 -10.33,0.06 -15.55,0.17l-0.11 -11.29c-1.99,2.5 -3.65,4.35 -5.03,5.59 -1.38,1.23 -2.86,2.33 -4.49,3.26 -1.6,0.95 -3.42,1.77 -5.42,2.44 -1.99,0.7 -4.3,1.23 -6.91,1.6 -2.61,0.39 -5.25,0.59 -7.92,0.59 -4.35,0 -8.45,-0.51 -12.3,-1.52 -3.87,-1.04 -7.27,-2.75 -10.19,-5.17 -2.95,-2.41 -4.94,-5.17 -6.01,-8.25 -1.07,-3.09 -1.6,-6.65 -1.6,-10.72 0,-0.98 0.08,-2.53 0.25,-4.6l1.29 -18.7c0.39,-6.85 0.76,-14.46 1.07,-22.8 0.22,-5.11 0.34,-9.94 0.34,-14.49 6.79,0.11 12.58,0.17 17.32,0.17 4.83,0 10.13,-0.06 15.95,-0.17l-2.56 31.36c-0.39,4.77 -0.59,8.03 -0.62,9.77 -0.03,1.71 -0.06,2.89 -0.06,3.48 0,5.81 1.15,9.74 3.48,11.79 2.3,2.05 5.08,3.06 8.31,3.06 1.29,0 2.61,-0.2 3.9,-0.59 1.32,-0.36 2.58,-0.93 3.76,-1.66 1.04,-0.65 1.99,-1.49 2.86,-2.47 0.93,-1.04 1.74,-2.3 2.47,-3.79 0.87,-1.83 1.52,-3.79 1.97,-5.87 0.59,-2.92 1.04,-6.63 1.38,-11.09 0.22,-3.23 0.56,-8.84 0.95,-16.79l0.7 -17.21c7.1,0.11 12.91,0.17 17.49,0.17 5.11,0 10.25,-0.06 15.41,-0.17 -1.24,13.95 -2.22,27.2 -2.92,39.75 -0.7,12.58 -1.24,27.34 -1.6,44.3zm23.33 -94.5c0.34,-6.51 0.51,-11.65 0.51,-15.44 0,-1.09 -0.03,-2.58 -0.08,-4.44 6.63,0.11 12.16,0.17 16.65,0.17 6.18,0 11.59,-0.06 16.25,-0.17 -0.17,1.68 -0.28,3.12 -0.34,4.27l-0.48 10.19c-0.11,1.52 -0.17,3.34 -0.17,5.42 -5.42,-0.11 -10.61,-0.17 -15.61,-0.17 -5.14,0 -10.72,0.06 -16.73,0.17zm-5.22 94.5c0.76,-6.71 1.32,-12.21 1.68,-16.54 0.39,-4.35 0.76,-9.88 1.09,-16.65 0.37,-6.74 0.67,-14.21 0.93,-22.38 0.28,-8.2 0.51,-17.69 0.65,-28.5 7.13,0.11 12.83,0.17 17.1,0.17 3.9,0 9.49,-0.06 16.79,-0.17 -0.9,10.36 -1.54,19.48 -1.91,27.34 -0.39,7.83 -0.65,16.14 -0.76,24.93 -0.2,15.58 -0.31,26.19 -0.31,31.78 -6.54,-0.11 -12.16,-0.17 -16.9,-0.17 -4.66,0 -10.78,0.06 -18.36,0.17zm52.89 0l1.46 -17.71 3.17 -61.54 0.9 -33.1c7.61,0.11 13.34,0.17 17.18,0.17 5,0 10.5,-0.06 16.54,-0.17l-1.85 25.27 -3 62.24 -0.65 24.85c-5.9,-0.06 -11.17,-0.08 -15.89,-0.08l-17.86 0.08zm133.83 -24.76c-0.7,3.29 -2.05,11.2 -4.04,23.75 -6.37,1.29 -11.74,2.13 -16.09,2.55 -4.35,0.42 -8.73,0.65 -13.2,0.65 -6.54,0 -12.58,-0.45 -18.05,-1.35 -5.5,-0.9 -10.25,-2.53 -14.23,-4.83 -3.99,-2.27 -7.33,-5.14 -10.02,-8.56 -2.7,-3.42 -4.74,-7.5 -6.15,-12.21 -1.4,-4.72 -2.11,-9.57 -2.11,-14.54 0,-7.02 1.4,-13.9 4.21,-20.61 2.78,-6.71 6.4,-11.96 10.81,-15.72 4.44,-3.79 9.52,-6.49 15.27,-8.06 5.76,-1.6 11.68,-2.39 17.71,-2.39 6.23,0 12.21,0.73 17.88,2.19 5.7,1.43 10.5,3.99 14.46,7.58 3.96,3.62 6.77,7.69 8.45,12.24 1.66,4.55 2.5,9.46 2.5,14.71 0,3.14 -0.34,6.6 -1.01,10.44l-57.86 0.08c-0.06,0.87 -0.08,1.66 -0.08,2.39 0,5.9 2.13,10.25 6.37,13.05 4.24,2.78 9.41,4.18 15.53,4.18 3.62,0 7.78,-0.42 12.44,-1.26 4.63,-0.84 10.39,-2.27 17.21,-4.3zm-50.82 -26.61l27.23 0c0.06,-0.93 0.08,-1.71 0.08,-2.39 0,-2.84 -0.51,-5.28 -1.52,-7.3 -1.04,-2.02 -2.5,-3.48 -4.38,-4.41 -1.91,-0.93 -4.04,-1.4 -6.4,-1.4 -1.66,0 -3.23,0.25 -4.77,0.79 -1.54,0.51 -2.95,1.29 -4.18,2.3 -1.23,1.01 -2.27,2.16 -3.09,3.48 -0.81,1.29 -1.43,2.58 -1.83,3.79 -0.36,1.23 -0.76,2.95 -1.15,5.14zm68.81 51.38l2.61 -36.55 0.84 -21c0.06,-3.79 0.08,-7.64 0.08,-11.6 0,-4.01 -0.06,-8.98 -0.17,-14.91 6.63,0.11 11.9,0.17 15.78,0.17 4.58,0 9.8,-0.06 15.72,-0.17l-0.37 9.4c2.16,-2.41 3.93,-4.21 5.31,-5.39 1.38,-1.18 2.92,-2.25 4.69,-3.2 1.77,-0.95 3.62,-1.68 5.53,-2.13 1.94,-0.48 3.93,-0.7 6.04,-0.7 1.97,0 4.18,0.28 6.6,0.84 0.06,5.98 0.2,10.89 0.42,14.8l0.59 12.66c-3.03,-0.9 -5.87,-1.35 -8.51,-1.35 -3.31,0 -6.15,0.48 -8.53,1.43 -2.39,0.95 -4.52,2.41 -6.37,4.38 -1.83,1.94 -3.31,4.35 -4.41,7.27 -1.09,2.89 -1.88,7.5 -2.3,13.81 -0.45,6.29 -0.67,13.5 -0.67,21.62 0,2.86 0.11,6.4 0.34,10.61 -5.33,-0.11 -10.7,-0.17 -16.06,-0.17 -5.33,0 -11.06,0.06 -17.15,0.17zm154.08 -24.76c-0.7,3.29 -2.05,11.2 -4.04,23.75 -6.37,1.29 -11.74,2.13 -16.09,2.55 -4.35,0.42 -8.73,0.65 -13.2,0.65 -6.54,0 -12.58,-0.45 -18.05,-1.35 -5.5,-0.9 -10.25,-2.53 -14.23,-4.83 -3.99,-2.27 -7.33,-5.14 -10.02,-8.56 -2.7,-3.42 -4.74,-7.5 -6.15,-12.21 -1.4,-4.72 -2.11,-9.57 -2.11,-14.54 0,-7.02 1.4,-13.9 4.21,-20.61 2.78,-6.71 6.4,-11.96 10.81,-15.72 4.44,-3.79 9.52,-6.49 15.27,-8.06 5.76,-1.6 11.68,-2.39 17.71,-2.39 6.23,0 12.21,0.73 17.88,2.19 5.7,1.43 10.5,3.99 14.46,7.58 3.96,3.62 6.77,7.69 8.45,12.24 1.66,4.55 2.5,9.46 2.5,14.71 0,3.14 -0.34,6.6 -1.01,10.44l-57.86 0.08c-0.06,0.87 -0.08,1.66 -0.08,2.39 0,5.9 2.13,10.25 6.37,13.05 4.24,2.78 9.41,4.18 15.53,4.18 3.62,0 7.78,-0.42 12.44,-1.26 4.63,-0.84 10.39,-2.27 17.21,-4.3zm-50.82 -26.61l27.23 0c0.06,-0.93 0.08,-1.71 0.08,-2.39 0,-2.84 -0.51,-5.28 -1.52,-7.3 -1.04,-2.02 -2.5,-3.48 -4.38,-4.41 -1.91,-0.93 -4.04,-1.4 -6.4,-1.4 -1.66,0 -3.23,0.25 -4.77,0.79 -1.54,0.51 -2.95,1.29 -4.18,2.3 -1.23,1.01 -2.27,2.16 -3.09,3.48 -0.81,1.29 -1.43,2.58 -1.83,3.79 -0.36,1.23 -0.76,2.95 -1.15,5.14zm68.31 49.86c-0.22,-2.41 -0.42,-4.97 -0.65,-7.64 -0.22,-2.67 -0.56,-6.34 -1.07,-11l-0.65 -5.95c5.31,2.11 9.85,3.68 13.67,4.69 3.82,1.04 7.36,1.54 10.56,1.54 2.7,0 4.86,-0.25 6.51,-0.73 1.68,-0.51 2.89,-1.21 3.65,-2.13 0.76,-0.93 1.15,-1.88 1.15,-2.86 0,-0.9 -0.28,-1.74 -0.87,-2.61 -0.56,-0.84 -1.85,-1.99 -3.87,-3.48 -4.46,-3.28 -8.39,-6.29 -11.79,-8.98 -3.4,-2.67 -5.95,-5.05 -7.66,-7.16 -1.71,-2.08 -3.03,-4.32 -3.93,-6.74 -0.9,-2.41 -1.35,-4.91 -1.35,-7.47 0,-4.58 1.29,-8.82 3.9,-12.77 2.58,-3.93 6.43,-6.79 11.48,-8.59 5.05,-1.77 11.23,-2.67 18.5,-2.67 7.61,0 17.29,1.01 29.11,3.03l1.35 22.91c-6.6,-2.58 -12.94,-3.87 -19.06,-3.87 -4.29,0 -7.44,0.45 -9.38,1.32 -1.94,0.9 -2.89,2.25 -2.89,4.1 0,0.59 0.11,1.18 0.34,1.71 0.2,0.56 0.62,1.12 1.18,1.74 0.56,0.59 1.29,1.21 2.13,1.85 0.84,0.62 2.89,2.08 6.18,4.38 3.29,2.3 5.84,4.21 7.69,5.7 3.06,2.41 5.39,4.63 7.02,6.68 1.6,2.08 2.84,4.27 3.68,6.6 0.84,2.33 1.26,4.77 1.26,7.36 0,3.9 -0.95,7.47 -2.84,10.72 -1.88,3.28 -4.74,6.01 -8.56,8.2 -3.79,2.19 -7.92,3.71 -12.38,4.58 -4.44,0.84 -9.01,1.26 -13.73,1.26 -3.17,0 -7.16,-0.28 -11.96,-0.81 -4.8,-0.56 -10.36,-1.52 -16.73,-2.89z"/>
  </g>
 </g>
</svg>
