<?xml version="1.0" encoding="UTF-8"?>
<!DOCTYPE svg PUBLIC "-//W3C//DTD SVG 1.1//EN" "http://www.w3.org/Graphics/SVG/1.1/DTD/svg11.dtd">
<!-- Creator: CorelDRAW 2020 (64-Bit) -->
<svg xmlns="http://www.w3.org/2000/svg" xml:space="preserve" width="422.571mm" height="242.121mm" version="1.1" style="shape-rendering:geometricPrecision; text-rendering:geometricPrecision; image-rendering:optimizeQuality; fill-rule:evenodd; clip-rule:evenodd"
viewBox="0 0 3306.47 1894.51"
 xmlns:xlink="http://www.w3.org/1999/xlink"
 xmlns:xodm="http://www.corel.com/coreldraw/odm/2003">
 <defs>
  <style type="text/css">
   <![CDATA[
    .fil0 {fill:#ED3237;fill-rule:nonzero}
   ]]>
  </style>
 </defs>
 <g id="Capa_x0020_1">
  <metadata id="CorelCorpID_0Corel-Layer"/>
  <g id="_2293289989440">
   <path id="key:4_2_" class="fil0" d="M2377.14 780.23l-46.35 0c-13.07,0 -23.66,-10.59 -23.66,-23.66 0,-13.07 10.59,-23.66 23.66,-23.66l46.36 0c13.07,0 23.66,10.59 23.66,23.66 -0,13.06 -10.59,23.66 -23.66,23.66zm0 82.38l-46.35 0c-13.07,0 -23.66,-10.59 -23.66,-23.66 0,-13.07 10.59,-23.66 23.66,-23.66l46.36 0c13.07,0 23.66,10.59 23.66,23.66 -0,13.06 -10.59,23.66 -23.66,23.66zm0 82.37l-46.35 0c-13.07,0 -23.66,-10.59 -23.66,-23.66 0,-13.07 10.59,-23.66 23.66,-23.66l46.36 0c13.07,0 23.66,10.59 23.66,23.66 0,13.07 -10.59,23.66 -23.66,23.66zm0 82.38l-46.35 0c-13.07,0 -23.66,-10.59 -23.66,-23.66 0,-13.07 10.59,-23.66 23.66,-23.66l46.36 0c13.07,0 23.66,10.59 23.66,23.66 -0,13.07 -10.59,23.66 -23.66,23.66zm0 164.76l-46.35 0c-13.07,0 -23.66,-10.59 -23.66,-23.66 0,-13.07 10.59,-23.66 23.66,-23.66l46.36 0c13.07,0 23.66,10.59 23.66,23.66 -0,13.07 -10.59,23.66 -23.66,23.66zm541.5 -164.76l-94.63 0c-13.07,0 -23.66,-10.59 -23.66,-23.66 0,-13.07 10.59,-23.66 23.66,-23.66l94.63 0c13.07,0 23.66,10.59 23.66,23.66 0,13.07 -10.59,23.66 -23.66,23.66zm0 164.76l-94.63 0c-13.07,0 -23.66,-10.59 -23.66,-23.66 0,-13.07 10.59,-23.66 23.66,-23.66l94.63 0c13.07,0 23.66,10.59 23.66,23.66 0,13.07 -10.59,23.66 -23.66,23.66zm137.71 43.48l-42.8 0 0 -163.11 292.93 -224.69 -403.49 -321.83 -1453.03 0 0 -127.29c0,-105.67 -43.23,-206.55 -117.68,-281 -76.85,-76.85 -175.32,-117.68 -281,-117.68 -218.55,0 -396.28,177.72 -396.28,396.28l0 2.4c-110.48,4.8 -213.75,50.44 -293.01,129.69 -62.39,62.39 -103.6,139.33 -120.71,222.96 5.42,-3.71 10.87,-7.38 16.34,-11 44.73,-29.55 90.66,-55.37 137.74,-77.48 12.93,-20.64 28.26,-40 45.89,-57.63 62.44,-62.44 144.1,-96.07 232.97,-96.07l91.27 0 -0 -112.88c0,-156.11 127.29,-283.4 283.4,-283.4 76.85,0 148.91,31.22 201.74,84.06 55.24,55.24 84.06,127.29 84.06,201.74l0 237.77 1527.48 0 261.78 208.95 -110.4 84.42 0 -1.58c0,-13.07 -10.59,-23.66 -23.66,-23.66l-237.88 0c-13.07,0 -23.66,10.59 -23.66,23.66l0 307.35 -69.6 0 0 -268.82c0,-9.02 -5.13,-17.26 -13.23,-21.23l-174.19 -85.57 0 -185.68c0,-13.07 -10.59,-23.66 -23.66,-23.66l-70.05 0 -47.31 0 -70.05 0c-13.07,0 -23.66,10.59 -23.66,23.66l0 58.62 -120.92 -0c-13.07,0 -23.66,10.59 -23.66,23.66l0 139.56c0,13.07 10.59,23.66 23.66,23.66 13.07,0 23.66,-10.59 23.66,-23.66l0 -115.9 97.27 0 0 455.37 -97.27 0 0 -203.37 0 -62.17c0,-13.07 -10.59,-23.66 -23.66,-23.66 -13.07,0 -23.66,10.59 -23.66,23.66l0 38.51 -68.11 0 0 -80.32c0,-13.07 -10.59,-23.66 -23.66,-23.66l-129.03 0c-13.07,0 -23.66,10.59 -23.66,23.66l0 57.04 -56.46 120.21 -292.92 0c6.7,35.57 2.87,14.07 3.22,52.13l141.28 -0 0 77.98 -37.36 0c-13.06,-0 -23.66,10.58 -23.66,23.65 0,13.07 10.59,23.66 23.66,23.66l61.02 0 204.87 0 129.02 0 115.43 0 144.58 0 187.41 0 187.41 0 116.92 0 237.88 0 66.46 0c13.07,0 23.66,-10.59 23.66,-23.66 0,-13.07 -10.58,-23.66 -23.65,-23.66zm-1366.33 -57.86l157.56 0 0 57.86 -157.56 0 0 -57.86zm204.87 -23.66l0 -202.18 81.71 0 0 80.32 0 203.37 -81.71 0 0 -81.51zm129.03 -98.19l68.11 0 0 179.71 -68.11 0 0 -179.71zm260.01 -299.31l0 -58.62 140.1 0 0 176.75 0 360.89 -140.1 0 0 -479.02zm187.41 479.03l0 -322.91 140.1 68.82 0 254.09 -140.1 0zm304.33 0l0 -283.69 190.56 0 0 283.69 -190.56 0zm-398.53 -125.86l-46.35 0c-13.07,0 -23.66,-10.59 -23.66,-23.66 0,-13.07 10.59,-23.66 23.66,-23.66l46.36 0c13.07,0 23.66,10.59 23.66,23.66 -0,13.06 -10.59,23.66 -23.66,23.66zm541.5 0l-94.63 0c-13.07,0 -23.66,-10.59 -23.66,-23.66 0,-13.07 10.59,-23.66 23.66,-23.66l94.63 0c13.07,0 23.66,10.59 23.66,23.66 0,13.06 -10.59,23.66 -23.66,23.66z"/>
   <path class="fil0" d="M1438.03 1276.07c-29.55,162.53 -111.69,300.3 -246.41,413.29 -124.29,104.3 -270.31,169.92 -438.06,196.87 -33.9,5.22 -66.49,7.82 -97.78,7.82 -100.82,0 -175.14,-23.47 -222.94,-70.4 -3.48,-3.48 -5.22,-8.26 -5.22,-14.34 0,-17.38 7.82,-30.86 23.47,-40.42 24.34,-122.55 66.06,-259.88 125.16,-411.98 37.37,-96.48 105.17,-253.8 203.38,-471.96 8.69,-22.6 17.82,-45.2 27.38,-67.8 13.91,-28.68 30.86,-43.02 50.85,-43.02 6.95,0 13.91,1.3 20.86,3.91 26.94,10.43 40.42,27.38 40.42,50.85 0,24.34 -12.6,44.76 -37.81,61.28 -31.29,41.72 -82.57,144.72 -153.84,308.99 -85.18,195.56 -146.45,369.83 -183.83,522.8 -8.69,36.51 -10.43,62.14 -5.22,76.92 36.51,24.34 82.14,35.64 136.89,33.9 73.88,-2.61 156.88,-23.03 249.02,-61.28 111.25,-46.94 203.82,-109.95 277.7,-189.04 91.26,-97.35 146.02,-210.77 164.27,-340.28 3.48,-24.34 5.21,-48.67 5.21,-73.01 0,-146.02 -53.89,-265.53 -161.66,-358.53 -101.69,-88.65 -225.98,-132.98 -372.87,-132.98 -184.26,0 -353.75,52.15 -508.46,156.45 -154.71,104.3 -238.15,220.33 -250.32,348.1 -6.95,71.27 49.54,128.2 169.49,170.79 34.77,12.17 52.15,25.21 52.15,39.11 0,8.69 -5.87,15.64 -17.6,20.86 -11.73,5.22 -23.68,6.95 -35.85,5.22 -62.58,-9.56 -116.47,-31.29 -161.67,-65.19 -56.5,-42.59 -84.74,-96.04 -84.74,-160.36 0,-13.91 1.3,-28.68 3.91,-44.33 26.94,-135.59 121.25,-256.84 282.91,-363.75 168.62,-111.25 353.75,-166.88 555.4,-166.88 33.03,0 65.62,1.74 97.78,5.22 139.07,13.91 256.84,68.66 353.32,164.27 103.43,102.56 155.15,228.16 155.15,376.78 0,36.5 -3.48,73.88 -10.43,112.12z"/>
   <path class="fil0" d="M1697.63 1584.38c-17.89,38.35 -45.44,70.16 -82.67,95.44 -39.64,26.97 -81.22,40.45 -124.73,40.45 -9.19,0 -18.13,-0.63 -26.83,-1.9 -30.46,-4.21 -53.91,-16.01 -70.34,-35.4 -15.95,-18.12 -23.93,-41.29 -23.93,-69.53 0,-33.29 10.64,-68.05 31.91,-104.29 21.27,-36.24 46.41,-67.42 75.42,-93.55 33.36,-30.34 63.82,-45.51 91.37,-45.51 9.19,0 17.65,1.69 25.38,5.06 43.51,-1.26 75.9,10.53 97.18,35.4 17.89,21.07 26.83,49.3 26.83,84.7 0,31.18 -6.53,60.89 -19.58,89.12zm-38.44 -11.38c12.57,-28.23 18.86,-55.41 18.86,-81.54 0,-52.25 -25.62,-80.48 -76.87,-84.7 -8.7,3.37 -16.2,4.21 -22.48,2.53 -32.88,4.63 -60.43,17.49 -82.67,38.56 -14.99,14.33 -33.36,39.4 -55.12,75.22 -19.34,31.6 -29.01,61.31 -29.01,89.12 0,22.33 6.28,40.45 18.86,54.36 12.57,13.91 29.25,21.28 50.04,22.12 38.19,1.69 73.49,-8.32 105.88,-30.02 32.39,-21.7 56.56,-50.25 72.52,-85.64zm459.05 90.39c0,8.01 -4.11,15.59 -12.33,22.75 -9.67,8.43 -22.24,13.06 -37.71,13.91 -35.78,2.11 -53.66,-17.07 -53.66,-57.52 0,-24.44 9.67,-68.47 29.01,-132.1 4.35,-14.33 5.32,-21.91 2.9,-22.75 -1.93,-1.26 -12.57,10.96 -31.91,36.66 -17.41,22.75 -39.16,53.73 -65.27,92.91 -21.76,32.45 -36.5,52.88 -44.24,61.31 -2.9,3.37 -8.22,5.06 -15.95,5.06 -8.7,0 -16.44,-1.9 -23.21,-5.69 -6.77,-3.79 -9.19,-8.22 -7.25,-13.27 8.7,-27.81 25.14,-75.85 49.31,-144.11 4.83,-13.06 7.25,-21.91 7.25,-26.55 0,-3.37 -0.97,-5.27 -2.9,-5.69 -0.97,-0.42 -5.32,2.74 -13.05,9.48 -7.74,6.74 -13.78,12.85 -18.13,18.33 -40.61,51.41 -63.82,81.33 -69.62,89.75 -24.17,32.87 -42.54,62.57 -55.11,89.12 -2.9,6.32 -11.36,9.48 -25.38,9.48 -22.72,0 -32.39,-6.53 -29.01,-19.59 16.92,-65.73 52.46,-151.27 106.6,-256.62 -1.45,-12.22 1.69,-23.81 9.43,-34.76 19.82,-27.81 36.26,-40.24 49.31,-37.29 9.19,2.11 13.78,6.95 13.78,14.54 0,9.27 -6.29,23.6 -18.86,42.98 -33.84,51.83 -68.41,122.41 -103.7,211.74 13.54,-24.44 36.26,-55.83 68.17,-94.18 26.59,-31.6 51,-58.36 73.24,-80.27 11.12,-10.96 23.45,-16.43 36.99,-16.43 16.44,0 24.66,9.9 24.66,29.71 0,10.96 -2.66,24.44 -7.98,40.45 -5.32,16.01 -15.95,45.3 -31.91,87.86 19.34,-25.28 38.68,-50.57 58.02,-75.85 24.17,-31.18 44.72,-55.62 61.64,-73.32 12.09,-12.64 25.38,-18.96 39.89,-18.96 12.09,0 18.13,7.79 18.13,23.39 0,14.33 -5.08,34.34 -15.23,60.05 -22.24,56.46 -33.36,99.66 -33.36,129.57 0,19.38 5.32,30.13 15.96,32.24 4.83,0.84 11.24,-2 19.22,-8.53 7.98,-6.53 14.14,-9.8 18.49,-9.8 9.19,0 13.78,4 13.78,12.01zm242.21 -179.51c-13.54,22.75 -26.11,49.3 -37.71,79.64 -13.05,35.4 -19.58,63.63 -19.58,84.7 0,21.07 4.59,31.6 13.78,31.6 1.45,0 3.99,-0.63 7.61,-1.9 3.63,-1.26 6.65,-1.9 9.06,-1.9 8.7,0 13.05,4.42 13.05,13.27 0,7.16 -5.8,13.27 -17.4,18.33 -11.6,5.06 -22.96,6.95 -34.08,5.69 -21.75,-2.11 -32.63,-18.96 -32.63,-50.57 0,-9.27 1.69,-27.6 5.08,-54.99 -47.86,65.73 -91.61,98.6 -131.26,98.6 -4.83,0 -9.67,-0.42 -14.5,-1.26 -14.5,-2.95 -21.76,-14.96 -21.76,-36.03 0,-48.46 34.33,-135.05 102.98,-259.78 4.83,-8.85 16.2,-13.69 34.08,-14.54 9.67,-0.42 14.5,6.74 14.5,21.49 0,6.74 -1.21,13.27 -3.63,19.59 -4.35,11.38 -11.12,18.12 -20.31,20.23 -20.3,26.13 -39.4,61.31 -57.29,105.56 -16.92,41.72 -25.38,72.69 -25.38,92.91 0,8.01 1.69,12.64 5.08,13.91 9.19,4.21 32.15,-13.48 68.89,-53.09 35.29,-38.35 60.19,-70.79 74.7,-97.34 2.9,-6.74 4.59,-15.59 5.08,-26.55 0.48,-6.32 4.84,-13.69 13.05,-22.12 6.29,-6.74 14.5,-10.11 24.66,-10.11 17.4,0 26.11,5.69 26.11,17.07 0,2.53 -0.73,5.06 -2.18,7.59zm325.61 -28.44c0.48,0.84 0.73,2.11 0.73,3.79 0,6.74 -3.87,20.23 -11.6,40.45 -15.95,40.45 -31.67,61.94 -47.14,64.47 -3.87,0.84 -7.25,1.26 -10.15,1.26 -8.7,0 -13.05,-3.37 -13.05,-10.11 0,-5.06 3.38,-14.96 10.15,-29.71 10.15,-22.33 16.92,-38.13 20.31,-47.4 1.93,-13.91 2.9,-25.7 2.9,-35.4 0,-37.5 -14.75,-57.1 -44.24,-58.78 -33.84,-1.69 -67.93,6.74 -102.25,25.28 -36.74,19.8 -55.84,42.77 -57.29,68.9 -1.45,24.02 11.6,46.56 39.16,67.63 0.97,0.42 25.38,15.17 73.24,44.24 27.56,16.86 45.93,28.86 55.11,36.03 18.86,14.33 28.04,26.97 27.56,37.92 -0.48,13.06 -16.92,23.39 -49.31,30.97 -29.01,6.74 -64.54,10.11 -106.6,10.11 -34.81,0 -64.06,-3.79 -87.75,-11.38 -28.52,-9.27 -42.3,-22.54 -41.34,-39.82 0.97,-12.64 4.83,-25.07 11.6,-37.29 8.7,-14.75 18.86,-22.12 30.46,-22.12 10.15,0 15.23,2.74 15.23,8.22 0,2.95 -3.51,10.01 -10.52,21.17 -7.01,11.17 -10.52,19.7 -10.52,25.6 0.48,10.96 9.43,18.96 26.83,24.02 6.28,2.11 23.45,5.27 51.49,9.48 75.42,-1.26 113.13,-8.64 113.13,-22.12 0,-8.85 -12.09,-21.07 -36.26,-36.66 -22.24,-13.06 -44.48,-26.13 -66.72,-39.19 -52.21,-31.18 -78.32,-65.1 -78.32,-101.76 0,-5.06 0.48,-9.9 1.45,-14.54 4.84,-27.39 29.01,-53.94 72.52,-79.64 43.51,-25.7 88.23,-38.34 134.16,-37.92 61.4,0.42 90.41,35.19 87.02,104.29z"/>
   <path class="fil0" d="M1848.1 1858.09l6.44 -11.19 40.13 -75.7 4.27 -8.46c1.25,-2.49 2.97,-6.07 5.19,-10.73 9.12,0.11 15.77,0.16 19.96,0.16 7.29,0 14.05,-0.05 20.28,-0.16l11.32 32.42 23.09 62.31 4.51 11.34c-8.96,-0.11 -14.39,-0.16 -16.3,-0.16 -4.35,0 -10.76,0.05 -19.19,0.16 -2.28,-8.56 -5.57,-18.63 -9.89,-30.22l-39.1 0c-4.48,9.14 -9.12,19.22 -13.92,30.22 -9.65,-0.11 -15.56,-0.16 -17.73,-0.16 -3.95,0 -10.28,0.05 -19.06,0.16zm60.09 -52.8l24.12 0c-6.02,-18.26 -9.3,-28.33 -9.89,-30.19 -3.39,7.61 -6.28,13.84 -8.67,18.71l-5.57 11.48zm82.24 52.8l1.38 -16.72 2.99 -58.1 0.85 -31.25c7.18,0.11 12.59,0.16 16.22,0.16 4.72,0 9.91,-0.05 15.61,-0.16l-1.75 23.85 -2.84 58.76 -0.61 23.46c-5.57,-0.05 -10.55,-0.08 -15,-0.08l-16.86 0.08zm103.29 36.42l1.8 -24.78c0.32,-3.68 0.77,-10.63 1.35,-20.83 -2.33,2.17 -4.24,3.84 -5.75,4.98 -1.51,1.14 -3.37,2.2 -5.57,3.21 -2.2,1.01 -4.53,1.78 -7,2.31 -2.44,0.5 -4.98,0.77 -7.55,0.77 -7,0 -13.04,-1.75 -18.16,-5.25 -5.09,-3.5 -8.93,-8.06 -11.45,-13.65 -2.54,-5.62 -3.82,-11.72 -3.82,-18.24 0,-4.96 0.72,-9.83 2.15,-14.63 1.4,-4.8 3.5,-9.25 6.23,-13.36 2.76,-4.11 6.49,-7.58 11.27,-10.42 4.74,-2.81 10.31,-4.82 16.67,-6.02 6.36,-1.19 13.01,-1.78 19.96,-1.78 10.65,0 23.06,1.17 37.24,3.5 -1.19,12.99 -2.15,24.99 -2.89,35.97 -0.72,10.97 -1.27,21.92 -1.67,32.84 -0.4,10.95 -0.77,26.05 -1.14,45.38 -4.9,-0.11 -10.07,-0.16 -15.48,-0.16 -4.56,0 -9.94,0.05 -16.19,0.16zm4.53 -93.93c-3.02,-0.56 -5.62,-0.85 -7.84,-0.85 -4.88,0 -8.99,0.93 -12.33,2.81 -3.34,1.88 -5.86,4.69 -7.55,8.4 -1.72,3.74 -2.57,7.79 -2.57,12.14 0,2.73 0.45,5.22 1.35,7.45 0.9,2.25 2.39,4.03 4.4,5.35 2.01,1.35 4.24,2.01 6.68,2.01 1.91,0 3.76,-0.4 5.59,-1.19 1.8,-0.79 3.45,-1.96 4.96,-3.5 1.51,-1.56 2.76,-3.53 3.76,-5.91 1.01,-2.39 1.78,-5.51 2.25,-9.41 0.5,-3.87 0.93,-9.65 1.3,-17.31zm132.92 57.52c-5.91,-0.11 -10.84,-0.16 -14.76,-0.16 -4.88,0 -9.75,0.05 -14.68,0.16l-0.11 -10.65c-1.88,2.36 -3.45,4.11 -4.74,5.27 -1.3,1.17 -2.7,2.2 -4.24,3.07 -1.51,0.9 -3.23,1.67 -5.11,2.31 -1.88,0.66 -4.06,1.17 -6.52,1.51 -2.46,0.37 -4.96,0.56 -7.47,0.56 -4.11,0 -7.98,-0.48 -11.61,-1.43 -3.66,-0.98 -6.87,-2.6 -9.62,-4.88 -2.78,-2.28 -4.66,-4.88 -5.67,-7.79 -1.01,-2.92 -1.51,-6.28 -1.51,-10.13 0,-0.93 0.08,-2.38 0.24,-4.35l1.22 -17.65c0.37,-6.47 0.72,-13.65 1.01,-21.52 0.21,-4.82 0.32,-9.38 0.32,-13.68 6.41,0.11 11.87,0.16 16.35,0.16 4.56,0 9.57,-0.05 15.05,-0.16l-2.41 29.61c-0.37,4.51 -0.56,7.58 -0.58,9.22 -0.03,1.62 -0.05,2.73 -0.05,3.29 0,5.49 1.09,9.2 3.29,11.13 2.17,1.94 4.8,2.89 7.84,2.89 1.22,0 2.47,-0.19 3.68,-0.56 1.25,-0.34 2.44,-0.87 3.55,-1.56 0.98,-0.61 1.88,-1.41 2.7,-2.33 0.87,-0.98 1.64,-2.17 2.33,-3.58 0.82,-1.72 1.43,-3.58 1.86,-5.54 0.56,-2.76 0.98,-6.26 1.3,-10.47 0.21,-3.05 0.53,-8.35 0.9,-15.85l0.66 -16.25c6.71,0.11 12.19,0.16 16.51,0.16 4.82,0 9.67,-0.05 14.55,-0.16 -1.17,13.17 -2.09,25.68 -2.76,37.53 -0.66,11.87 -1.17,25.82 -1.51,41.83zm22.03 -89.22c0.32,-6.15 0.48,-11 0.48,-14.58 0,-1.03 -0.03,-2.44 -0.08,-4.19 6.26,0.11 11.48,0.16 15.72,0.16 5.83,0 10.95,-0.05 15.35,-0.16 -0.16,1.59 -0.26,2.94 -0.32,4.03l-0.45 9.62c-0.11,1.43 -0.16,3.15 -0.16,5.12 -5.12,-0.11 -10.02,-0.16 -14.74,-0.16 -4.85,0 -10.13,0.05 -15.8,0.16zm-4.93 89.22c0.72,-6.33 1.25,-11.53 1.59,-15.61 0.37,-4.11 0.72,-9.33 1.03,-15.72 0.35,-6.36 0.64,-13.41 0.87,-21.12 0.27,-7.74 0.48,-16.7 0.61,-26.9 6.73,0.11 12.11,0.16 16.14,0.16 3.68,0 8.96,-0.05 15.85,-0.16 -0.85,9.78 -1.46,18.39 -1.8,25.82 -0.37,7.4 -0.61,15.24 -0.72,23.54 -0.19,14.71 -0.29,24.73 -0.29,30 -6.18,-0.11 -11.48,-0.16 -15.96,-0.16 -4.4,0 -10.18,0.05 -17.33,0.16zm49.94 0l1.38 -16.72 2.99 -58.1 0.85 -31.25c7.18,0.11 12.59,0.16 16.22,0.16 4.72,0 9.91,-0.05 15.61,-0.16l-1.75 23.85 -2.84 58.76 -0.61 23.46c-5.57,-0.05 -10.55,-0.08 -15,-0.08l-16.86 0.08zm126.35 -23.38c-0.66,3.1 -1.94,10.58 -3.82,22.42 -6.02,1.22 -11.08,2.01 -15.19,2.41 -4.11,0.4 -8.24,0.61 -12.46,0.61 -6.18,0 -11.87,-0.42 -17.04,-1.27 -5.19,-0.85 -9.67,-2.38 -13.44,-4.56 -3.76,-2.15 -6.92,-4.85 -9.46,-8.08 -2.54,-3.23 -4.48,-7.08 -5.8,-11.53 -1.33,-4.45 -1.99,-9.04 -1.99,-13.73 0,-6.63 1.33,-13.12 3.98,-19.46 2.62,-6.33 6.04,-11.29 10.2,-14.84 4.19,-3.58 8.99,-6.12 14.42,-7.61 5.43,-1.51 11.03,-2.25 16.72,-2.25 5.88,0 11.53,0.69 16.88,2.07 5.38,1.35 9.91,3.76 13.65,7.16 3.74,3.42 6.39,7.26 7.98,11.56 1.56,4.29 2.36,8.93 2.36,13.89 0,2.97 -0.32,6.23 -0.95,9.86l-54.63 0.08c-0.05,0.82 -0.08,1.56 -0.08,2.25 0,5.57 2.01,9.67 6.02,12.32 4,2.62 8.88,3.95 14.66,3.95 3.42,0 7.34,-0.4 11.74,-1.19 4.37,-0.79 9.81,-2.15 16.25,-4.06zm-47.97 -25.13l25.71 0c0.05,-0.87 0.08,-1.62 0.08,-2.25 0,-2.68 -0.48,-4.98 -1.43,-6.89 -0.98,-1.91 -2.36,-3.29 -4.13,-4.16 -1.8,-0.87 -3.82,-1.32 -6.04,-1.32 -1.56,0 -3.05,0.24 -4.51,0.74 -1.46,0.48 -2.78,1.22 -3.95,2.17 -1.17,0.95 -2.15,2.04 -2.92,3.29 -0.77,1.22 -1.35,2.44 -1.72,3.58 -0.34,1.17 -0.72,2.78 -1.09,4.85zm64.96 48.5l2.46 -34.51 0.8 -19.83c0.05,-3.58 0.08,-7.21 0.08,-10.95 0,-3.79 -0.05,-8.48 -0.16,-14.07 6.26,0.11 11.24,0.16 14.9,0.16 4.32,0 9.25,-0.05 14.84,-0.16l-0.35 8.88c2.04,-2.28 3.71,-3.98 5.01,-5.09 1.3,-1.11 2.76,-2.12 4.43,-3.02 1.67,-0.9 3.42,-1.59 5.22,-2.01 1.83,-0.45 3.71,-0.66 5.7,-0.66 1.86,0 3.95,0.27 6.23,0.79 0.05,5.65 0.19,10.28 0.4,13.97l0.56 11.95c-2.86,-0.85 -5.54,-1.27 -8.03,-1.27 -3.13,0 -5.8,0.45 -8.06,1.35 -2.25,0.9 -4.27,2.28 -6.02,4.14 -1.72,1.83 -3.13,4.11 -4.16,6.86 -1.03,2.73 -1.78,7.08 -2.17,13.04 -0.42,5.94 -0.64,12.75 -0.64,20.41 0,2.7 0.11,6.04 0.32,10.02 -5.04,-0.11 -10.1,-0.16 -15.16,-0.16 -5.04,0 -10.44,0.05 -16.19,0.16zm145.46 -23.38c-0.66,3.1 -1.94,10.58 -3.82,22.42 -6.02,1.22 -11.08,2.01 -15.19,2.41 -4.11,0.4 -8.24,0.61 -12.46,0.61 -6.18,0 -11.87,-0.42 -17.04,-1.27 -5.19,-0.85 -9.67,-2.38 -13.44,-4.56 -3.76,-2.15 -6.92,-4.85 -9.46,-8.08 -2.54,-3.23 -4.48,-7.08 -5.8,-11.53 -1.33,-4.45 -1.99,-9.04 -1.99,-13.73 0,-6.63 1.33,-13.12 3.98,-19.46 2.62,-6.33 6.04,-11.29 10.2,-14.84 4.19,-3.58 8.99,-6.12 14.42,-7.61 5.43,-1.51 11.03,-2.25 16.72,-2.25 5.88,0 11.53,0.69 16.88,2.07 5.38,1.35 9.91,3.76 13.65,7.16 3.74,3.42 6.39,7.26 7.98,11.56 1.56,4.29 2.36,8.93 2.36,13.89 0,2.97 -0.32,6.23 -0.95,9.86l-54.63 0.08c-0.05,0.82 -0.08,1.56 -0.08,2.25 0,5.57 2.01,9.67 6.02,12.32 4,2.62 8.88,3.95 14.66,3.95 3.42,0 7.34,-0.4 11.74,-1.19 4.37,-0.79 9.81,-2.15 16.25,-4.06zm-47.97 -25.13l25.71 0c0.05,-0.87 0.08,-1.62 0.08,-2.25 0,-2.68 -0.48,-4.98 -1.43,-6.89 -0.98,-1.91 -2.36,-3.29 -4.13,-4.16 -1.8,-0.87 -3.82,-1.32 -6.04,-1.32 -1.56,0 -3.05,0.24 -4.51,0.74 -1.46,0.48 -2.78,1.22 -3.95,2.17 -1.17,0.95 -2.15,2.04 -2.92,3.29 -0.77,1.22 -1.35,2.44 -1.72,3.58 -0.34,1.17 -0.72,2.78 -1.09,4.85zm64.49 47.07c-0.21,-2.28 -0.4,-4.69 -0.61,-7.21 -0.21,-2.52 -0.53,-5.99 -1.01,-10.39l-0.61 -5.62c5.01,1.99 9.3,3.47 12.91,4.43 3.6,0.98 6.94,1.46 9.97,1.46 2.54,0 4.59,-0.24 6.15,-0.69 1.59,-0.48 2.73,-1.14 3.45,-2.01 0.72,-0.87 1.09,-1.78 1.09,-2.7 0,-0.85 -0.26,-1.64 -0.82,-2.46 -0.53,-0.79 -1.75,-1.88 -3.66,-3.29 -4.21,-3.1 -7.93,-5.94 -11.13,-8.48 -3.21,-2.52 -5.62,-4.77 -7.24,-6.76 -1.62,-1.96 -2.86,-4.08 -3.71,-6.36 -0.85,-2.28 -1.27,-4.64 -1.27,-7.05 0,-4.32 1.22,-8.32 3.68,-12.06 2.44,-3.71 6.07,-6.41 10.84,-8.11 4.77,-1.67 10.6,-2.52 17.47,-2.52 7.18,0 16.33,0.95 27.49,2.86l1.27 21.63c-6.23,-2.44 -12.22,-3.66 -18,-3.66 -4.05,0 -7.02,0.42 -8.85,1.25 -1.83,0.85 -2.73,2.12 -2.73,3.87 0,0.56 0.11,1.11 0.32,1.62 0.19,0.53 0.58,1.06 1.11,1.64 0.53,0.56 1.22,1.14 2.01,1.75 0.79,0.58 2.73,1.96 5.83,4.14 3.1,2.17 5.51,3.98 7.26,5.38 2.89,2.28 5.09,4.37 6.63,6.31 1.51,1.96 2.68,4.03 3.47,6.23 0.79,2.2 1.19,4.51 1.19,6.94 0,3.68 -0.9,7.05 -2.68,10.13 -1.78,3.1 -4.48,5.67 -8.08,7.74 -3.58,2.07 -7.47,3.5 -11.69,4.32 -4.19,0.79 -8.51,1.19 -12.96,1.19 -3,0 -6.76,-0.27 -11.29,-0.77 -4.53,-0.53 -9.78,-1.43 -15.8,-2.73z"/>
  </g>
 </g>
</svg>
