<?xml version="1.0" encoding="UTF-8"?>
<!DOCTYPE svg PUBLIC "-//W3C//DTD SVG 1.1//EN" "http://www.w3.org/Graphics/SVG/1.1/DTD/svg11.dtd">
<!-- Creator: CorelDRAW 2020 (64-Bit) -->
<svg xmlns="http://www.w3.org/2000/svg" xml:space="preserve" width="23.314mm" height="23.314mm" version="1.1" style="shape-rendering:geometricPrecision; text-rendering:geometricPrecision; image-rendering:optimizeQuality; fill-rule:evenodd; clip-rule:evenodd"
viewBox="0 0 1568.24 1568.24"
 xmlns:xlink="http://www.w3.org/1999/xlink"
 xmlns:xodm="http://www.corel.com/coreldraw/odm/2003">
 <defs>
  <style type="text/css">
   <![CDATA[
    .str0 {stroke:#FEFEFE;stroke-width:13.45;stroke-miterlimit:22.9256}
    .fil0 {fill:#FEFEFE}
    .fil1 {fill:#BB0808}
    .fil2 {fill:#FDFCFC}
   ]]>
  </style>
 </defs>
 <g id="Capa_x0020_1">
  <metadata id="CorelCorpID_0Corel-Layer"/>
  <circle class="fil0 str0" cx="784.12" cy="784.12" r="777.39"/>
  <g id="_2463357044736">
   <path class="fil1" d="M1145.76 444.9l-728.98 728.73c3.34,8.29 11.66,14.28 4.07,18.15 -7.57,3.86 -31.96,-22.02 -30.89,-29.25 1.78,-12.06 11.16,0.03 18.27,2.52 50.52,-46.65 129.81,-129.33 182.16,-181.67 61.44,-61.45 120.77,-120.77 182.24,-182.25l272.99 -273.75c30.01,-30.01 60.36,-62.89 91.45,-90.2 -3.12,-7.7 -11.9,-15.2 -4.31,-18.67 6.18,-2.83 14.8,8.09 18.96,12.25 3.87,3.87 12.97,11.52 12.07,17.13 -1.63,10.06 -11.72,0.48 -18.04,-2.99zm-428.24 -354.09l4.63 2.31c13.41,3.42 58.24,1.74 73.62,1.72l-0.89 24.05c-26.5,8.6 -47.95,0.55 -77.04,49.34 -27.59,46.28 -161.59,466.34 -192.6,559.12 -9.36,27.99 -25.72,68.85 -31.66,96.47l-71.09 0.09c-7.57,-10.62 -123.32,-323.97 -137.73,-363.31l-39.37 -105.87c-0.34,-0.91 -2.81,-7.43 -3.22,-8.24 -0.3,-0.6 -0.71,-1.35 -1.02,-1.9l-3.75 -5.15c-12.89,9.18 -53.26,69.2 -64.86,89.4 -67.02,116.63 -101.67,221.41 -100.78,366.67 1.18,193.58 73.18,362.01 199.5,492.99l52.16 47.48c130.93,100.92 252.91,155.9 429.36,162.54 34.99,1.31 158.3,-3.2 181.38,-16.74 -34.12,-29.14 -58.66,-29.72 -104.79,-88 -27.4,-34.62 -54.98,-73.24 -73.75,-122.64 -40.5,-106.55 -19.88,-234.07 28.78,-321.57 47,-84.51 106.92,-144.15 212.84,-177.35 163.29,-51.18 245.97,41.53 288.6,15.36 15.04,-9.23 11.87,-16.05 19.16,-31.18 10.41,0.09 21.46,-1.24 28.88,1.9l3.55 248.97 -24.9 0.21c-24.96,-102.13 -84.52,-226.92 -209.49,-225.63 -67.24,0.69 -116.42,36.32 -139.84,76.03 -44.19,74.93 -33.03,247.78 -33.02,347.7 0.01,49.97 2.18,100.93 13.44,147.94 10.1,42.16 31.82,88.41 56.93,108.29 28.98,-0.8 128.43,-55.06 150.45,-68.85 43.01,-26.93 50.59,-30.21 50.32,-59.18 -0.22,-23.76 2.82,-91.99 -2.17,-110.19l-90.92 -0.2 -0.59 -24.49 223.23 -0.19c28.27,-0.01 24.65,-1.66 37.82,-20.83 8.55,-12.44 16.43,-25.38 23.68,-38.94 47.29,-88.39 79.96,-176.9 87.18,-283.47 15.13,-223.63 -56.58,-400.41 -190.49,-547.77 -69.15,-76.1 -206.22,-163.66 -306.11,-189.34 -102.1,-26.25 -161.92,-30.8 -265.42,-27.53z"/>
   <path class="fil1" d="M373.65 213.71c0.99,14.96 64.7,180.96 75.24,207.99 11.95,30.68 69.47,194.98 78.95,206.61l16.98 -46.44c33.53,-101.95 82.33,-245.82 109.71,-340.3 10.49,-36.19 10.63,-80.52 -12.5,-101.28 -21.83,-19.6 -63.62,-26.91 -96.85,-13.74 -111.5,44.19 -82.72,38.22 -171.53,87.15z"/>
   <path class="fil2" d="M420.86 1191.77c7.59,-3.87 -0.73,-9.86 -4.07,-18.15l728.98 -728.73c6.32,3.46 16.41,13.05 18.04,2.99 0.9,-5.61 -8.19,-13.26 -12.07,-17.13 -4.16,-4.16 -12.78,-15.07 -18.96,-12.25 -7.59,3.46 1.19,10.97 4.31,18.67 -31.09,27.3 -61.44,60.18 -91.45,90.2l-272.99 273.75c-61.47,61.48 -120.8,120.8 -182.24,182.25 -52.35,52.35 -131.65,135.02 -182.16,181.67 -7.11,-2.48 -16.49,-14.58 -18.27,-2.52 -1.07,7.22 23.31,33.11 30.89,29.25z"/>
  </g>
 </g>
</svg>
